<svg width="37" height="37" viewBox="0 0 37 37" fill="none" xmlns="http://www.w3.org/2000/svg">
<path d="M36.3 18.15C36.3 8.13 28.1722 0 18.145 0C8.11776 0 0 8.13 0 18.15C0 27.21 6.63817 34.72 15.3158 36.08V23.39H10.707V18.14H15.3158V14.14C15.3158 9.59 18.025 7.08 22.1739 7.08C24.1633 7.08 26.2328 7.43 26.2328 7.43V11.9H23.9434C21.684 11.9 20.9842 13.3 20.9842 14.73V18.14H26.0128L25.2131 23.39H20.9842V36.08C29.6618 34.72 36.3 27.21 36.3 18.15Z" fill="#222222"/>
<path d="M25.215 23.3998L26.0148 18.1498H20.9862V14.7398C20.9862 13.2998 21.686 11.9098 23.9453 11.9098H26.2347V7.43984C26.2347 7.43984 24.1553 7.08984 22.1758 7.08984C18.027 7.08984 15.3177 9.59984 15.3177 14.1498V18.1498H10.709V23.3998H15.3177V36.0898C16.2375 36.2398 17.1872 36.3098 18.1569 36.3098C19.1267 36.3098 20.0664 36.2298 20.9961 36.0898V23.3998H25.225H25.215Z" fill="#0FC1EA"/>
</svg>
