<svg width="38" height="37" viewBox="0 0 38 37" fill="none" xmlns="http://www.w3.org/2000/svg">
<path d="M18.9508 36.3C28.9748 36.3 37.1008 28.174 37.1008 18.15C37.1008 8.12603 28.9748 0 18.9508 0C8.92682 0 0.800781 8.12603 0.800781 18.15C0.800781 28.174 8.92682 36.3 18.9508 36.3Z" fill="#222222"/>
<path d="M24.5801 11.2798C23.8901 11.2798 23.3301 11.8398 23.3301 12.5298C23.3301 13.2198 23.8901 13.7798 24.5801 13.7798C25.2701 13.7798 25.8301 13.2198 25.8301 12.5298C25.8301 11.8398 25.2701 11.2798 24.5801 11.2798Z" fill="#0FC1EA"/>
<path d="M19.0418 12.8799C16.1518 12.8799 13.8018 15.2299 13.8018 18.1199C13.8018 21.0099 16.1518 23.3599 19.0418 23.3599C21.9318 23.3599 24.2818 21.0099 24.2818 18.1199C24.2818 15.2299 21.9318 12.8799 19.0418 12.8799ZM19.0418 21.4799C17.1918 21.4799 15.6818 19.9699 15.6818 18.1199C15.6818 16.2699 17.1918 14.7599 19.0418 14.7599C20.8918 14.7599 22.4018 16.2699 22.4018 18.1199C22.4018 19.9699 20.8918 21.4799 19.0418 21.4799Z" fill="#0FC1EA"/>
<path d="M23.2006 28.76H14.7005C11.1705 28.76 8.31055 25.89 8.31055 22.37V13.87C8.31055 10.34 11.1805 7.47998 14.7005 7.47998H23.2006C26.7306 7.47998 29.5906 10.35 29.5906 13.87V22.37C29.5906 25.9 26.7206 28.76 23.2006 28.76ZM14.7005 9.47998C12.2805 9.47998 10.3105 11.45 10.3105 13.87V22.37C10.3105 24.79 12.2805 26.76 14.7005 26.76H23.2006C25.6206 26.76 27.5906 24.79 27.5906 22.37V13.87C27.5906 11.45 25.6206 9.47998 23.2006 9.47998H14.7005Z" fill="#0FC1EA"/>
</svg>
