<svg width="37" height="37" viewBox="0 0 37 37" fill="none" xmlns="http://www.w3.org/2000/svg">
<path d="M18.5484 36.3C28.5724 36.3 36.6984 28.174 36.6984 18.15C36.6984 8.12603 28.5724 0 18.5484 0C8.52448 0 0.398438 8.12603 0.398438 18.15C0.398438 28.174 8.52448 36.3 18.5484 36.3Z" fill="#222222"/>
<path d="M10.9284 14.7702H14.4484V26.0602H10.9284V14.7702ZM12.6884 9.16016C13.8084 9.16016 14.7284 10.0702 14.7284 11.1902C14.7284 12.3102 13.8184 13.2302 12.6884 13.2302C11.5584 13.2302 10.6484 12.3202 10.6484 11.1902C10.6484 10.0602 11.5584 9.16016 12.6884 9.16016Z" fill="#0FC1EA"/>
<path d="M16.6494 14.7702H20.0194V16.3102H20.0694C20.5394 15.4202 21.6794 14.4902 23.3894 14.4902C26.9394 14.4902 27.5994 16.8302 27.5994 19.8702V26.0602H24.0894V20.5702C24.0894 19.2602 24.0594 17.5702 22.2694 17.5702C20.4794 17.5702 20.1594 19.0002 20.1594 20.4702V26.0602H16.6494V14.7702Z" fill="#0FC1EA"/>
</svg>
