<svg width="90" height="90" viewBox="0 0 90 90" xmlns="http://www.w3.org/2000/svg">
<path fill-rule="evenodd" clip-rule="evenodd" d="M45 90C69.8528 90 90 69.8528 90 45C90 20.1472 69.8528 0 45 0C20.1472 0 0 20.1472 0 45C0 69.8528 20.1472 90 45 90ZM75.4759 43.8682H76.3488L76.3635 43.8804C76.8263 43.8804 77.2042 44.2747 77.2042 44.7575C77.2042 45.2404 76.8263 45.6346 76.3635 45.6346H74.6206H74.6147H74.5444C74.0816 45.6041 73.7301 45.1854 73.7594 44.7056L74.0376 40.1642L73.2643 40.9435C73.0124 41.1971 72.6111 41.191 72.368 40.9282L71.2226 39.6935L70.3995 41.463C70.2472 41.79 69.8664 41.9276 69.5529 41.7686L69.2395 41.6097L69.8195 44.5894C69.9074 45.0295 69.6496 45.4635 69.2454 45.5888C69.1868 45.6102 69.1282 45.6224 69.0667 45.6285C69.0052 45.6346 68.9437 45.6377 68.8822 45.6316H67.2418C66.7789 45.6316 66.4011 45.2373 66.4011 44.7545C66.4011 44.2716 66.7789 43.8774 67.2418 43.8774H67.9389L67.3062 40.6287L66.7204 40.3323C66.4069 40.1733 66.2751 39.776 66.4274 39.449L67.9858 36.0904L67.315 33.3857L66.8551 33.8686C66.6061 34.1253 66.2077 34.1283 65.9588 33.8686L63.6476 36.2921C63.5451 36.399 63.422 36.4724 63.2931 36.5121C63.135 36.5732 62.9563 36.5824 62.7805 36.5304L60.5367 35.852L60.5016 36.0017C60.4166 36.3562 60.0739 36.5702 59.7341 36.4815L59.0457 36.3012V37.4198L61.1431 41.3836C61.3481 41.7747 61.2104 42.2698 60.8384 42.4838L60.3697 42.7558L60.9146 43.8774H62.1771C62.6399 43.8774 63.0178 44.2716 63.0178 44.7545C63.0178 45.2373 62.6399 45.6316 62.1771 45.6316H60.4342C60.2496 45.6316 60.0827 45.5705 59.945 45.4665C59.8337 45.3871 59.737 45.2771 59.6726 45.1426L58.9198 43.5931L58.3515 43.9201C57.9765 44.1341 57.502 43.9904 57.297 43.6023L56.3655 41.842L55.4339 43.6023C55.226 43.9935 54.7514 44.1341 54.3794 43.9201L53.8111 43.5931L53.0583 45.1426C52.9939 45.2771 52.8972 45.3871 52.7859 45.4665C52.6453 45.5705 52.4783 45.6316 52.2967 45.6316H50.5538C50.091 45.6316 49.7131 45.2373 49.7131 44.7545C49.7131 44.2716 50.091 43.8774 50.5538 43.8774H51.8163L52.3612 42.7558L51.8925 42.4838C51.5175 42.2668 51.3828 41.7717 51.5878 41.3836L53.691 37.4106V36.2065L53.1257 36.3471C52.7859 36.4296 52.4432 36.2095 52.3641 35.855L52.2879 35.5219L49.6282 36.2859C49.6106 36.2921 49.593 36.2951 49.5754 36.2982C49.2532 36.3868 48.8959 36.2737 48.6849 35.9803L46.2859 32.6522L46.488 40.589C46.4909 41.7136 45.6883 42.4501 44.7861 42.114L43.7755 41.735L43.3332 43.8712H44.0597C44.5225 43.8712 44.9004 44.2655 44.9004 44.7484C44.9004 45.2312 44.5225 45.6255 44.0597 45.6255H42.3402C42.2728 45.6285 42.1996 45.6224 42.1293 45.6071C41.7368 45.5185 41.4702 45.1518 41.4761 44.7484C41.4761 44.6628 41.4878 44.5772 41.5112 44.4978L42.2054 41.1482L39.2293 40.0328L38.7401 40.8121L39.4051 44.6169C39.4842 45.0845 39.1854 45.5307 38.7343 45.6132C38.6757 45.6255 38.6171 45.6255 38.5615 45.6255H36.8273C36.3645 45.6255 35.9866 45.2312 35.9866 44.7484C35.9866 44.2655 36.3645 43.8712 36.8273 43.8712H37.5919L37.0587 40.8273C37.047 40.7662 37.047 40.7082 37.047 40.647C37.0441 40.4667 37.091 40.2834 37.1935 40.1214L37.627 39.4307L36.798 39.119C35.8841 38.7767 35.682 37.6765 36.344 36.8544L41.684 30.3387L36.8596 30.9591C36.3997 31.0202 35.9778 30.6749 35.9222 30.1981C35.8636 29.7183 36.1946 29.2783 36.6516 29.2202L43.4679 28.3431C43.5177 28.3339 43.5734 28.3247 43.632 28.3217L43.7169 28.3095C43.8019 28.2972 43.8839 28.3003 43.963 28.3156C43.4416 27.851 43.0666 27.2123 42.9143 26.488C42.5775 26.6378 42.1761 26.7478 41.6782 26.7294C40.9781 26.7021 40.6354 26.508 40.3606 26.3525L40.3571 26.3505C40.1081 26.2069 39.9265 26.106 39.3846 26.1518C39.0946 26.1793 38.9276 26.326 38.6991 26.5308C38.3007 26.8853 37.8848 27.1787 37.1935 27.1787C36.7072 27.1787 36.0833 27.032 35.2309 26.6592C34.9965 26.5553 34.8794 26.2619 34.9731 26.0021C35.0639 25.7423 35.3305 25.614 35.5648 25.7179C37.3017 26.4757 37.6855 26.1336 38.1278 25.7394L38.1279 25.7393C38.4003 25.4948 38.7431 25.1892 39.3143 25.1403C40.1169 25.07 40.4684 25.2686 40.776 25.4459L40.7795 25.4479C41.0094 25.5785 41.212 25.6935 41.7104 25.7118C42.1879 25.7301 42.5306 25.5834 42.8645 25.4C42.8938 25.125 42.9553 24.8622 43.0432 24.6116C42.6858 24.7307 42.2728 24.8163 41.7866 24.7827C41.1773 24.7399 40.8228 24.5596 40.5387 24.4129L40.5283 24.4076C40.2432 24.2634 40.0138 24.1473 39.4871 24.1715C39.1917 24.1837 39.0073 24.3208 38.753 24.5098L38.7519 24.5107C38.4062 24.7674 38.0137 25.0577 37.3429 25.0577C36.8273 25.0577 36.1507 24.8866 35.2045 24.3976C34.9731 24.2815 34.8764 23.9789 34.9819 23.7253C35.0874 23.4716 35.3598 23.3616 35.5883 23.4808C37.3011 24.3636 37.7379 24.0403 38.2415 23.6677L38.2422 23.6672C38.5351 23.4502 38.8983 23.1813 39.449 23.1568C40.2018 23.1232 40.5856 23.3188 40.9224 23.493L40.9325 23.4982C41.1861 23.6275 41.4086 23.7409 41.8422 23.7681C42.431 23.8078 42.8616 23.6214 43.3156 23.4227L43.3461 23.4095L43.3462 23.4095C43.5769 23.3096 43.816 23.2061 44.0684 23.1446C44.4434 22.839 44.8857 22.6159 45.369 22.5089C45.2021 22.4448 45.0351 22.3959 44.874 22.3714C44.5401 22.3225 44.1885 22.4325 43.7785 22.5609L43.7657 22.5649C43.2386 22.7289 42.6417 22.9148 41.892 22.8359C41.3765 22.784 41.0308 22.622 40.7262 22.4784L40.7182 22.4747C40.3905 22.3234 40.1039 22.1911 39.5896 22.1911H39.5867C39.2908 22.1911 39.077 22.3225 38.8075 22.4906C38.1396 22.9062 37.3107 23.4197 35.1782 22.1392C34.9555 22.0047 34.8735 21.6991 34.9936 21.4515C35.1137 21.204 35.3891 21.1123 35.6117 21.2468C37.2994 22.2599 37.7896 21.9567 38.3568 21.6059L38.3593 21.6043L38.3753 21.5946C38.6965 21.3983 39.0593 21.1765 39.5838 21.1765H39.5896C40.2926 21.1765 40.7115 21.3721 41.0806 21.5463L41.1016 21.5558C41.3739 21.6802 41.6114 21.7887 41.977 21.8274C42.5657 21.8885 43.0579 21.7357 43.5324 21.586L43.5362 21.5848C43.9979 21.4415 44.477 21.2928 44.9941 21.369C46.4118 21.5799 48.2368 23.3463 48.3012 23.4105C48.3217 23.4319 48.3334 23.4472 48.3452 23.4655C48.8959 24.0645 49.2356 24.8774 49.2356 25.7729C49.2356 27.6127 47.8062 29.1071 46.0398 29.1071C45.9637 29.1071 45.8875 29.1041 45.8143 29.0979C45.9314 29.211 46.0252 29.3333 46.0955 29.4677L49.6985 34.4645L52.0214 33.7952C52.0975 33.6088 52.2528 33.459 52.4578 33.4101L54.933 32.802C53.7321 32.2366 52.9412 30.9286 53.0583 29.48C53.073 29.3027 53.1023 29.1285 53.1403 28.9604L52.1473 28.4623C51.8778 28.3247 51.7607 27.9825 51.8925 27.6982C52.0243 27.4171 52.3524 27.2948 52.6248 27.4324L53.5827 27.9152C53.8434 27.5057 54.1919 27.1604 54.5933 26.9067L54.2271 25.8768C54.1216 25.5803 54.2652 25.2503 54.5493 25.1403C54.8335 25.0302 55.1498 25.18 55.2553 25.4764L55.6156 26.4911C55.9026 26.433 56.2014 26.4116 56.509 26.4391C56.6672 26.4544 56.8195 26.4788 56.9689 26.5155L57.3731 25.4978C57.4903 25.2044 57.8125 25.0669 58.0908 25.1861C58.372 25.3084 58.5038 25.6445 58.3896 25.9349L57.9824 26.9648C58.3544 27.2154 58.6708 27.5454 58.9139 27.9305L59.9274 27.4446C60.2028 27.3132 60.5309 27.4385 60.6568 27.7257C60.7828 28.013 60.6627 28.3553 60.3873 28.4867L59.3533 28.9818C59.4324 29.321 59.4617 29.6756 59.4324 30.0423C59.3328 31.2984 58.577 32.3313 57.5459 32.8111L60.4254 33.5629C60.7007 33.6363 60.8882 33.8838 60.9029 34.165L62.7893 34.7365L64.7783 32.6492L64.6201 32.4872C64.374 32.2274 64.374 31.8118 64.6201 31.552L66.6794 29.3913C66.776 29.2905 66.8903 29.2202 67.0104 29.1835C67.0426 29.1682 67.0748 29.156 67.11 29.1468L67.5406 29.0307V29.0246C65.9324 28.8504 64.6787 27.4324 64.6787 25.7087C64.6787 23.8689 66.1111 22.3745 67.8745 22.3745C69.6379 22.3745 71.0703 23.8659 71.0703 25.7087C71.0703 26.8456 70.5255 27.851 69.6906 28.4531L70.0626 28.3522C70.1505 28.3247 70.2355 28.3034 70.3175 28.2881C70.5167 28.2392 70.7276 28.2361 70.9385 28.2972L73.4928 29.0246C73.8589 29.1285 74.0786 29.5136 74.0025 29.8956L76.6007 30.7238C77.0372 30.8644 77.2832 31.3473 77.1485 31.8026C77.0138 32.258 76.5509 32.5147 76.1145 32.3741L73.566 31.5612L73.5192 31.7445C73.4166 32.1418 73.0241 32.3741 72.6433 32.2671L72.3211 32.1755L72.8425 34.819L75.5228 37.707C75.7659 37.9699 75.76 38.3886 75.5081 38.6422L75.2474 38.905L75.5052 39.1984C75.6429 39.3574 75.7132 39.556 75.722 39.7547V39.7883V39.8372V39.8494L75.4759 43.8682ZM12.4407 45.338C12.2445 45.1424 12.1478 44.8796 12.1478 44.5525V38.8987H10.5279C10.1911 38.8987 9.93916 38.8254 9.77512 38.6756C9.61109 38.5289 9.52907 38.3028 9.52907 37.9972C9.52907 37.6915 9.61109 37.4684 9.77512 37.3248C9.93916 37.1812 10.1911 37.1078 10.5279 37.1078H15.9119C16.2488 37.1078 16.5007 37.1812 16.6647 37.3248C16.8288 37.4684 16.9108 37.6915 16.9108 37.9972C16.9108 38.3028 16.8288 38.5259 16.6647 38.6756C16.5007 38.8223 16.2488 38.8987 15.9119 38.8987H14.2891V44.5525C14.2891 44.8796 14.1924 45.1424 13.9962 45.338C13.7999 45.5336 13.5421 45.6314 13.2199 45.6314C12.8977 45.6314 12.6399 45.5336 12.4437 45.338H12.4407ZM25.0419 38.1313C25.0419 37.8043 24.9481 37.5415 24.7607 37.3459C24.5732 37.1503 24.3213 37.0525 24.0078 37.0525C23.6944 37.0525 23.4425 37.1503 23.255 37.3459C23.0675 37.5415 22.9738 37.8043 22.9738 38.1313V40.399H19.6608V38.1313C19.6608 37.8043 19.5671 37.5415 19.3796 37.3459C19.1921 37.1503 18.9402 37.0525 18.6268 37.0525C18.3134 37.0525 18.0615 37.1503 17.874 37.3459C17.6865 37.5415 17.5928 37.8043 17.5928 38.1313V44.5522C17.5928 44.8884 17.6865 45.1543 17.874 45.3499C18.0615 45.5455 18.3134 45.6433 18.6268 45.6433C18.9402 45.6433 19.1921 45.5424 19.3796 45.3438C19.5671 45.1451 19.6608 44.8792 19.6608 44.5522V42.1532H22.9738V44.5522C22.9738 44.8884 23.0675 45.1543 23.255 45.3499C23.4425 45.5455 23.6944 45.6433 24.0078 45.6433C24.3213 45.6433 24.5732 45.5424 24.7607 45.3438C24.9481 45.1451 25.0419 44.8792 25.0419 44.5522V38.1313ZM26.4686 45.308C26.2987 45.1307 26.2167 44.8801 26.2167 44.5531V38.1322C26.2167 37.8052 26.3016 37.5515 26.4686 37.3743C26.6385 37.2001 26.8787 37.1114 27.1921 37.1114H31.173C31.504 37.1114 31.7529 37.1848 31.9199 37.3284C32.0898 37.4721 32.1718 37.6799 32.1718 37.9519C32.1718 38.5264 31.8379 38.8168 31.17 38.8168H28.273V40.4243H30.9415C31.6094 40.4243 31.9433 40.7085 31.9433 41.2769C31.9433 41.5489 31.8584 41.7568 31.6914 41.9004C31.5215 42.044 31.2725 42.1174 30.9445 42.1174H28.2759V43.8685H31.173C31.8408 43.8685 32.1748 44.1558 32.1748 44.7334C32.1748 45.0054 32.0898 45.2132 31.9228 45.3569C31.7529 45.5005 31.504 45.5739 31.1759 45.5739H27.195C26.8816 45.5739 26.6385 45.4852 26.4715 45.311L26.4686 45.308ZM10.1523 54.7477C10.4862 55.4048 10.9578 55.909 11.5671 56.2605L11.57 56.2544C12.1793 56.6058 12.8882 56.7831 13.7025 56.7831C14.678 56.7831 15.5333 56.5141 16.2686 55.9793C16.3974 55.8846 16.4912 55.7776 16.5498 55.6615C16.6054 55.5454 16.6347 55.4017 16.6347 55.2336C16.6347 54.9861 16.5673 54.7752 16.4326 54.6041C16.2978 54.4329 16.1338 54.3474 15.9434 54.3474C15.838 54.3474 15.7442 54.3626 15.6681 54.3962C15.589 54.4299 15.4718 54.4879 15.3107 54.5766C14.9709 54.7385 14.6955 54.8547 14.4817 54.9311C14.2649 55.0075 14.0452 55.0441 13.8138 55.0441C13.1313 55.0441 12.6246 54.8302 12.2906 54.4024C11.9567 53.9745 11.7897 53.3113 11.7897 52.4403C11.7897 51.5693 11.9567 50.9184 12.2906 50.4905C12.6246 50.0627 13.1313 49.8487 13.8138 49.8487C14.0658 49.8487 14.3118 49.8854 14.5491 49.9557C14.7863 50.029 15.0383 50.1482 15.3078 50.3163C15.4308 50.3958 15.5392 50.4538 15.63 50.4905C15.7208 50.5272 15.8262 50.5455 15.9405 50.5455C16.1338 50.5455 16.2949 50.4569 16.4297 50.2858C16.5644 50.1146 16.6318 49.9037 16.6318 49.6562C16.6318 49.482 16.6025 49.3384 16.5468 49.2253C16.4912 49.1122 16.3945 49.0114 16.2656 48.9136C15.5275 48.3787 14.6721 48.1098 13.6996 48.1098C12.8882 48.1098 12.1764 48.2871 11.5671 48.6385C10.9578 48.99 10.4862 49.4942 10.1523 50.1513C9.81833 50.8084 9.65137 51.5632 9.65137 52.4434C9.65137 53.3236 9.81833 54.0906 10.1523 54.7477ZM24.7605 48.4543C24.948 48.6499 25.0417 48.9127 25.0417 49.2397V55.6606C25.0417 55.9876 24.948 56.2535 24.7605 56.4522C24.5731 56.6508 24.3211 56.7517 24.0077 56.7517C23.6943 56.7517 23.4424 56.6539 23.2549 56.4583C23.0674 56.2627 22.9737 55.9968 22.9737 55.6606V53.2616H19.6607V55.6606C19.6607 55.9876 19.567 56.2535 19.3795 56.4522C19.192 56.6508 18.9401 56.7517 18.6267 56.7517C18.3132 56.7517 18.0613 56.6539 17.8739 56.4583C17.6864 56.2627 17.5926 55.9968 17.5926 55.6606V49.2397C17.5926 48.9127 17.6864 48.6499 17.8739 48.4543C18.0613 48.2587 18.3132 48.1609 18.6267 48.1609C18.9401 48.1609 19.192 48.2587 19.3795 48.4543C19.567 48.6499 19.6607 48.9127 19.6607 49.2397V51.5074H22.9737V49.2397C22.9737 48.9127 23.0674 48.6499 23.2549 48.4543C23.4424 48.2587 23.6943 48.1609 24.0077 48.1609C24.3211 48.1609 24.5731 48.2587 24.7605 48.4543ZM26.2168 55.6606C26.2168 55.9968 26.3105 56.2627 26.498 56.4583C26.6855 56.6539 26.9345 56.7517 27.2625 56.7517C27.5906 56.7517 27.8542 56.6539 28.0447 56.4583C28.2351 56.2627 28.3317 55.9968 28.3317 55.6606V49.2397C28.3317 48.9127 28.2351 48.6499 28.0447 48.4543C27.8542 48.2587 27.5848 48.1609 27.2625 48.1609C26.9403 48.1609 26.6855 48.2587 26.498 48.4543C26.3105 48.6499 26.2168 48.9127 26.2168 49.2397V55.6606ZM29.7597 56.4155C29.5898 56.2382 29.5078 55.9846 29.5078 55.6484V49.2397C29.5078 48.9127 29.6015 48.6499 29.789 48.4543C29.9765 48.2587 30.2313 48.1609 30.5536 48.1609C30.8758 48.1609 31.1453 48.2587 31.3357 48.4543C31.5261 48.6499 31.6227 48.9127 31.6227 49.2397V54.8905H34.2678C34.9357 54.8905 35.2697 55.19 35.2697 55.789C35.2697 56.0946 35.1876 56.3177 35.0236 56.4613C34.8596 56.605 34.6076 56.6783 34.2708 56.6783H30.4862C30.1728 56.6783 29.9296 56.5897 29.7627 56.4155H29.7597ZM36.29 55.6605C36.29 55.9875 36.3721 56.2381 36.542 56.4153H36.539C36.706 56.5895 36.9491 56.6782 37.2626 56.6782H39.5854C40.4906 56.6782 41.2668 56.5101 41.9142 56.1739C42.5645 55.8377 43.0595 55.3518 43.3993 54.7161C43.7421 54.0805 43.912 53.3134 43.912 52.4424C43.912 51.5714 43.7391 50.8196 43.3935 50.187C43.0508 49.5543 42.5528 49.0684 41.9054 48.7292C41.2581 48.39 40.4847 48.2188 39.5884 48.2188H37.2655C36.952 48.2188 36.7119 48.3074 36.542 48.4816C36.375 48.6589 36.29 48.9126 36.29 49.2396V55.6605ZM41.8088 52.4424C41.8088 53.2767 41.6125 53.894 41.217 54.2974C40.8216 54.7009 40.2299 54.9026 39.439 54.9026H38.405V49.9944H39.439C40.2299 49.9944 40.8216 50.1931 41.217 50.5934C41.6125 50.9938 41.8088 51.6081 41.8088 52.4424ZM51.9796 55.8866C51.9796 56.1433 51.8771 56.3573 51.6749 56.5284C51.4728 56.6996 51.2356 56.7851 50.969 56.7851C50.7845 56.7851 50.6116 56.7423 50.4505 56.6537C50.2894 56.5651 50.1517 56.4337 50.0375 56.2595L48.5436 53.9796C48.4352 53.8207 48.3239 53.7015 48.2038 53.6251C48.0837 53.5487 47.946 53.512 47.7849 53.512H47.0379V55.6605C47.0379 55.9966 46.9471 56.2625 46.7626 56.4581C46.578 56.6537 46.3261 56.7515 46.0039 56.7515C45.6817 56.7515 45.4268 56.6537 45.2394 56.4581C45.0519 56.2625 44.9582 55.9966 44.9582 55.6605V49.2395C44.9582 48.9125 45.0431 48.6589 45.2101 48.4816C45.38 48.3074 45.6202 48.2188 45.9336 48.2188H48.8218C49.8032 48.2188 50.5413 48.4419 51.0364 48.885C51.5314 49.3282 51.7775 49.97 51.7775 50.8104C51.7775 51.4491 51.6076 51.9931 51.2707 52.4363C50.9338 52.8794 50.4564 53.1789 49.8442 53.3286C50.0961 53.3684 50.3187 53.457 50.5062 53.5945C50.6936 53.729 50.8811 53.9338 51.0627 54.2057L51.7745 55.2754C51.9122 55.4924 51.9825 55.6941 51.9825 55.8866H51.9796ZM49.4897 51.6264C49.6918 51.4736 49.7944 51.226 49.7944 50.8807C49.7944 50.5353 49.6918 50.2756 49.4897 50.1197C49.2876 49.9639 48.9507 49.8874 48.4821 49.8874H47.0086V51.8556H48.4821C48.9507 51.8556 49.2847 51.7792 49.4897 51.6264ZM53.0839 55.6605C53.0839 55.9875 53.1659 56.2381 53.3358 56.4153L53.3388 56.4184C53.5057 56.5926 53.7489 56.6812 54.0623 56.6812H58.0431C58.3712 56.6812 58.6202 56.6079 58.7901 56.4642C58.9571 56.3206 59.042 56.1128 59.042 55.8408C59.042 55.2632 58.7081 54.9759 58.0402 54.9759H55.1432V53.2247H57.8117C58.1398 53.2247 58.3888 53.1514 58.5587 53.0078C58.7257 52.8641 58.8106 52.6563 58.8106 52.3843C58.8106 51.8159 58.4767 51.5316 57.8088 51.5316H55.1402V49.9241H58.0373C58.7052 49.9241 59.0391 49.6338 59.0391 49.0592C59.0391 48.7872 58.9571 48.5794 58.7872 48.4358C58.6202 48.2922 58.3712 48.2188 58.0402 48.2188H54.0594C53.7459 48.2188 53.5057 48.3074 53.3358 48.4816C53.1689 48.6589 53.0839 48.9125 53.0839 49.2395V55.6605ZM66.9013 48.4604C67.0887 48.659 67.1825 48.9188 67.1825 49.2397V55.6606C67.1825 55.9876 67.0917 56.2535 66.9071 56.4522C66.7226 56.6508 66.4853 56.7517 66.1953 56.7517C65.8497 56.7517 65.589 56.6325 65.4132 56.391L61.9157 51.8435V55.6606C61.9157 55.9876 61.8278 56.2535 61.6521 56.4522C61.4763 56.6508 61.239 56.7517 60.9402 56.7517C60.6415 56.7517 60.41 56.6508 60.2284 56.4522C60.0439 56.2535 59.9531 55.9876 59.9531 55.6606V49.2397C59.9531 48.9188 60.0439 48.659 60.2284 48.4604C60.413 48.2618 60.6502 48.1609 60.9402 48.1609C61.2683 48.1609 61.5261 48.2801 61.7106 48.5215L65.2082 53.0568V49.2397C65.2082 48.9127 65.299 48.6499 65.4777 48.4543C65.6563 48.2587 65.8936 48.1609 66.1836 48.1609C66.4736 48.1609 66.7138 48.2618 66.9013 48.4604ZM70.1296 49.6344C70.1296 49.1638 70.0241 48.8001 69.8132 48.5434H69.822C69.6111 48.2867 69.3357 48.1583 68.9989 48.1583C68.6913 48.1583 68.4364 48.2714 68.2285 48.4945C68.0205 48.7176 67.918 48.9957 67.918 49.3227C67.918 49.6253 68.0058 49.8789 68.1875 50.0776C68.3661 50.2793 68.6034 50.3893 68.8934 50.4137C68.7997 50.7499 68.621 51.0647 68.3515 51.3611C68.2519 51.4651 68.2021 51.5812 68.2021 51.7095C68.2021 51.8471 68.2607 51.9693 68.3749 52.0763C68.4892 52.1832 68.6239 52.2383 68.7762 52.2383C68.9286 52.2383 69.0633 52.1771 69.1776 52.0579C69.491 51.7157 69.7282 51.3459 69.8894 50.9486C70.0505 50.5513 70.1296 50.1051 70.1296 49.6344ZM72.203 56.5773C71.6786 56.4367 71.2451 56.2442 70.9082 55.9966C70.7764 55.8927 70.6827 55.7858 70.627 55.6727C70.5685 55.5596 70.5421 55.416 70.5421 55.2418C70.5421 55.0034 70.6124 54.7925 70.7501 54.6183C70.8877 54.4411 71.0489 54.3555 71.2334 54.3555C71.333 54.3555 71.4297 54.3708 71.5205 54.4044C71.6113 54.435 71.7284 54.4961 71.8661 54.5847C72.1795 54.7681 72.493 54.8995 72.8035 54.9789C73.114 55.0584 73.4655 55.0981 73.8551 55.0981C74.3062 55.0981 74.6518 55.0278 74.8832 54.8873C75.1176 54.7467 75.2348 54.5419 75.2348 54.2699C75.2348 54.0866 75.1264 53.9276 74.9067 53.7962C74.687 53.6648 74.271 53.5334 73.6588 53.405C72.9001 53.2369 72.3055 53.0383 71.8749 52.806C71.4443 52.5738 71.1455 52.2987 70.9727 51.9839C70.7999 51.6692 70.7149 51.2871 70.7149 50.8379C70.7149 50.3275 70.8614 49.863 71.1514 49.4474C71.4414 49.0317 71.8427 48.7047 72.3524 48.4694C72.8621 48.2341 73.4362 48.1149 74.0718 48.1149C74.6313 48.1149 75.1293 48.1791 75.5658 48.3074C76.0022 48.4358 76.4006 48.6344 76.7609 48.9064C76.8986 49.0103 76.9952 49.1204 77.0538 49.2365C77.1124 49.3526 77.1388 49.4932 77.1388 49.6613C77.1388 49.8997 77.0714 50.1105 76.9367 50.2847C76.8019 50.462 76.6437 50.5506 76.4592 50.5506C76.3596 50.5506 76.2688 50.5353 76.1838 50.5078C76.0989 50.4803 75.9817 50.4192 75.8265 50.3214C75.7884 50.297 75.68 50.2358 75.4984 50.135C75.3168 50.0341 75.1088 49.9547 74.8657 49.8966C74.6255 49.8355 74.3618 49.8049 74.0777 49.8049C73.6881 49.8049 73.3717 49.8844 73.1345 50.0402C72.8972 50.1961 72.7771 50.4039 72.7771 50.6576C72.7771 50.8104 72.8181 50.9326 72.9031 51.0304C72.988 51.1252 73.1433 51.2199 73.3747 51.3116C73.6061 51.4033 73.9459 51.498 74.397 51.5928C75.1322 51.7608 75.7122 51.9625 76.134 52.1979C76.5558 52.4332 76.8546 52.7082 77.0304 53.02C77.2061 53.3317 77.294 53.7015 77.294 54.1232C77.294 54.6519 77.1534 55.1165 76.8693 55.5199C76.5851 55.9233 76.1897 56.235 75.68 56.455C75.1703 56.6751 74.5786 56.7851 73.9019 56.7851C73.2897 56.7851 72.7185 56.7148 72.1942 56.5742L72.203 56.5773ZM31.4967 66.7717C31.4967 67.0987 31.5933 67.3615 31.7896 67.5571C31.9859 67.7527 32.2436 67.8505 32.5659 67.8505C32.8881 67.8505 33.1459 67.7527 33.3421 67.5571C33.5384 67.3615 33.635 67.0987 33.635 66.7717V61.1179H35.2578C35.5947 61.1179 35.8466 61.0415 36.0107 60.8948C36.1747 60.745 36.2567 60.5219 36.2567 60.2163C36.2567 59.9107 36.1747 59.6876 36.0107 59.5439C35.8466 59.4003 35.5947 59.327 35.2578 59.327H29.8739C29.537 59.327 29.2851 59.4003 29.1211 59.5439C28.957 59.6876 28.875 59.9107 28.875 60.2163C28.875 60.5219 28.957 60.7481 29.1211 60.8948C29.2851 61.0445 29.537 61.1179 29.8739 61.1179H31.4967V66.7717ZM43.9638 66.9973C43.9638 67.2541 43.8613 67.468 43.6592 67.6391C43.457 67.8103 43.2198 67.8958 42.9532 67.8958C42.7687 67.8958 42.5958 67.8531 42.4347 67.7644C42.2736 67.6758 42.136 67.5444 42.0217 67.3702L40.5278 65.0903C40.4194 64.9314 40.3081 64.8122 40.188 64.7358C40.0679 64.6594 39.9302 64.6227 39.7691 64.6227H39.0222V66.7712C39.0222 67.1074 38.9313 67.3732 38.7468 67.5688C38.5623 67.7644 38.3103 67.8622 37.9881 67.8622C37.6659 67.8622 37.4111 67.7644 37.2236 67.5688C37.0361 67.3732 36.9424 67.1074 36.9424 66.7712V60.3503C36.9424 60.0233 37.0273 59.7696 37.1943 59.5924C37.3642 59.4182 37.6044 59.3295 37.9178 59.3295H40.8061C41.7874 59.3295 42.5255 59.5526 43.0206 59.9958C43.5156 60.4389 43.7617 61.0807 43.7617 61.9211C43.7617 62.5599 43.5918 63.1038 43.2549 63.547C42.9181 63.9901 42.4406 64.2896 41.8284 64.4394C42.0803 64.4791 42.3029 64.5677 42.4904 64.7053C42.6779 64.8397 42.8653 65.0445 43.0469 65.3165L43.7588 66.3861C43.8964 66.6031 43.9667 66.8048 43.9667 66.9973H43.9638ZM41.4739 62.7371C41.6761 62.5843 41.7786 62.3368 41.7786 61.9914C41.7786 61.6461 41.6761 61.3863 41.4739 61.2304C41.2718 61.0746 40.935 60.9982 40.4663 60.9982H38.9929V62.9663H40.4663C40.935 62.9663 41.2689 62.8899 41.4739 62.7371ZM44.5615 64.2256C44.5615 65.4236 44.8662 66.3374 45.4755 66.9609H45.4696C46.0789 67.5843 46.9782 67.896 48.144 67.896C49.3098 67.896 50.2003 67.5843 50.8184 66.9548C51.4365 66.3283 51.7441 65.4175 51.7441 64.2256V60.3505C51.7441 60.0235 51.6474 59.7606 51.457 59.5651C51.2666 59.3695 51.0117 59.2717 50.6983 59.2717C50.3849 59.2717 50.133 59.3695 49.9455 59.5651C49.758 59.7606 49.6643 60.0235 49.6643 60.3505V64.3112C49.6643 64.9194 49.5354 65.387 49.2747 65.714C49.014 66.041 48.639 66.206 48.1469 66.206C47.6548 66.206 47.2799 66.041 47.0192 65.714C46.7585 65.387 46.6296 64.9194 46.6296 64.3112V60.3505C46.6296 60.0235 46.5358 59.7606 46.3484 59.5651C46.1609 59.3695 45.909 59.2717 45.5956 59.2717C45.2821 59.2717 45.0302 59.3695 44.8427 59.5651C44.6553 59.7606 44.5615 60.0235 44.5615 60.3505V64.2256ZM54.0583 67.6875C53.534 67.5469 53.1005 67.3544 52.7636 67.1068C52.6318 67.0029 52.5381 66.896 52.4824 66.7829C52.4238 66.6698 52.3975 66.5262 52.3975 66.352C52.3975 66.1136 52.4678 65.9027 52.6054 65.7285C52.7431 65.5513 52.9042 65.4657 53.0888 65.4657C53.1884 65.4657 53.285 65.481 53.3758 65.5146C53.4666 65.5482 53.5838 65.6063 53.7215 65.6949C54.0349 65.8783 54.3483 66.0097 54.6588 66.0891C54.9693 66.1686 55.3209 66.2083 55.7104 66.2083C56.1616 66.2083 56.5072 66.138 56.7386 65.9975C56.973 65.8569 57.0901 65.6521 57.0901 65.3801C57.0901 65.1968 56.9817 65.0378 56.762 64.9064C56.5424 64.775 56.1264 64.6436 55.5142 64.5152C54.7555 64.3472 54.1609 64.1485 53.7303 63.9162C53.2997 63.684 53.0009 63.4089 52.8281 63.0942C52.6552 62.7794 52.5703 62.3974 52.5703 61.9481C52.5703 61.4377 52.7167 60.9732 53.0067 60.5576C53.2967 60.1419 53.698 59.8149 54.2077 59.5796C54.7174 59.3443 55.2916 59.2251 55.9272 59.2251C56.4867 59.2251 56.9847 59.2893 57.4211 59.4176C57.8576 59.546 58.256 59.7446 58.6163 60.0166C58.7539 60.1205 58.8506 60.2306 58.9092 60.3467C58.9678 60.4628 58.9941 60.6034 58.9941 60.7715C58.9941 61.0099 58.9268 61.2207 58.792 61.3949C58.6573 61.5722 58.4991 61.6608 58.3146 61.6608C58.215 61.6608 58.1242 61.6455 58.0392 61.618C57.9543 61.5905 57.8371 61.5294 57.6818 61.4316C57.6438 61.4072 57.5354 61.346 57.3538 61.2452C57.1721 61.1443 56.9642 61.0649 56.721 61.0068C56.4808 60.9457 56.2172 60.9151 55.9331 60.9151C55.5435 60.9151 55.2271 60.9946 54.9898 61.1505C54.7526 61.3063 54.6325 61.5111 54.6325 61.7678C54.6325 61.9206 54.6735 62.0428 54.7584 62.1406C54.8434 62.2354 54.9986 62.3301 55.23 62.4218C55.4615 62.5135 55.8013 62.6082 56.2524 62.703C56.9876 62.8711 57.5676 63.0728 57.9894 63.3081C58.4112 63.5434 58.71 63.8185 58.8858 64.1302C59.0615 64.4419 59.1494 64.8117 59.1494 65.2334C59.1494 65.7621 59.0088 66.2267 58.7246 66.6301C58.4405 67.0335 58.0451 67.3452 57.5354 67.5653C57.0257 67.7853 56.434 67.8953 55.7573 67.8953C55.1451 67.8953 54.5739 67.825 54.0496 67.6844L54.0583 67.6875ZM62.4244 66.7717C62.4244 67.0987 62.5211 67.3615 62.7173 67.5571C62.9136 67.7527 63.1714 67.8505 63.4936 67.8505C63.8158 67.8505 64.0736 67.7527 64.2698 67.5571C64.4661 67.3615 64.5628 67.0987 64.5628 66.7717V61.1179H66.1856C66.5224 61.1179 66.7744 61.0415 66.9384 60.8948C67.1024 60.745 67.1845 60.5219 67.1845 60.2163C67.1845 59.9107 67.1024 59.6876 66.9384 59.5439C66.7744 59.4003 66.5224 59.327 66.1856 59.327H60.8016C60.4647 59.327 60.2128 59.4003 60.0488 59.5439C59.8848 59.6876 59.8027 59.9107 59.8027 60.2163C59.8027 60.5219 59.8848 60.7481 60.0488 60.8948C60.2128 61.0445 60.4647 61.1179 60.8016 61.1179H62.4244V66.7717Z" fill="black"/>
</svg>
