<svg width="35" height="25" viewBox="0 0 35 25" fill="none" xmlns="http://www.w3.org/2000/svg">
<path d="M6.2002 4.50031L16.1923 14.4924C17.4174 15.7175 19.3903 15.7175 20.6155 14.4924L30.6075 4.50031" stroke="#FF6E39" stroke-width="2" stroke-linecap="round" stroke-linejoin="round"/>
<path d="M31.0049 1H4.70415C3.05213 1 1.71289 2.33922 1.71289 3.99125V20.6022C1.71289 22.2543 3.05213 23.5935 4.70415 23.5935H31.0049C32.6569 23.5935 33.9961 22.2543 33.9961 20.6022V3.99125C33.9961 2.33922 32.6569 1 31.0049 1Z" stroke="#FF6E39" stroke-width="2" stroke-linecap="round" stroke-linejoin="round"/>
<path d="M29.858 18.9475L23.0163 12.1058L20.6138 14.5083C19.3886 15.7335 17.4157 15.7335 16.1905 14.5083L13.6448 12.249L6.94629 18.9475" stroke="#FF6E39" stroke-width="2" stroke-linecap="round" stroke-linejoin="round"/>
</svg>
