<svg width="25" height="25" viewBox="0 0 25 25" fill="none" xmlns="http://www.w3.org/2000/svg">
<path d="M18.547 4.33167C17.7605 4.33167 17.1221 4.97005 17.1221 5.75662C17.1221 6.5432 17.7605 7.18158 18.547 7.18158C19.3336 7.18158 19.972 6.5432 19.972 5.75662C19.972 4.97005 19.3336 4.33167 18.547 4.33167Z" fill="#FF6E39"/>
<path d="M12.2332 6.1557C8.93868 6.1557 6.25977 8.83462 6.25977 12.1291C6.25977 15.4236 8.93868 18.1025 12.2332 18.1025C15.5277 18.1025 18.2066 15.4236 18.2066 12.1291C18.2066 8.83462 15.5277 6.1557 12.2332 6.1557ZM12.2332 15.9594C10.1242 15.9594 8.4029 14.2381 8.4029 12.1291C8.4029 10.0202 10.1242 8.29884 12.2332 8.29884C14.3421 8.29884 16.0635 10.0202 16.0635 12.1291C16.0635 14.2381 14.3421 15.9594 12.2332 15.9594Z" fill="#FF6E39"/>
<path d="M16.9741 24.2585H7.28438C3.2603 24.2585 0 20.9868 0 16.9741V7.28438C0 3.2603 3.2717 0 7.28438 0H16.9741C20.9982 0 24.2585 3.2717 24.2585 7.28438V16.9741C24.2585 20.9982 20.9868 24.2585 16.9741 24.2585ZM7.28438 2.27993C4.52566 2.27993 2.27993 4.52566 2.27993 7.28438V16.9741C2.27993 19.7328 4.52566 21.9785 7.28438 21.9785H16.9741C19.7328 21.9785 21.9785 19.7328 21.9785 16.9741V7.28438C21.9785 4.52566 19.7328 2.27993 16.9741 2.27993H7.28438Z" fill="#FF6E39"/>
</svg>
