<svg width="23" height="23" viewBox="0 0 23 23" fill="none" xmlns="http://www.w3.org/2000/svg">
<g clip-path="url(#clip0_581_5232)">
<path d="M18.9003 6.56996C20.4853 6.56996 21.7703 5.28501 21.7703 3.69996C21.7703 2.1149 20.4853 0.829956 18.9003 0.829956C17.3152 0.829956 16.0303 2.1149 16.0303 3.69996C16.0303 5.28501 17.3152 6.56996 18.9003 6.56996Z" stroke="#FF6E39" stroke-width="1.66" stroke-linecap="round" stroke-linejoin="round"/>
<path d="M18.9003 21.6799C20.4853 21.6799 21.7703 20.395 21.7703 18.8099C21.7703 17.2249 20.4853 15.9399 18.9003 15.9399C17.3152 15.9399 16.0303 17.2249 16.0303 18.8099C16.0303 20.395 17.3152 21.6799 18.9003 21.6799Z" stroke="#FF6E39" stroke-width="1.66" stroke-linecap="round" stroke-linejoin="round"/>
<path d="M3.70008 14.12C5.28514 14.12 6.57008 12.8351 6.57008 11.25C6.57008 9.66495 5.28514 8.38 3.70008 8.38C2.11502 8.38 0.830078 9.66495 0.830078 11.25C0.830078 12.8351 2.11502 14.12 3.70008 14.12Z" stroke="#FF6E39" stroke-width="1.66" stroke-linecap="round" stroke-linejoin="round"/>
<path d="M6.56055 10.35L16.3305 5.35999" stroke="#FF6E39" stroke-width="1.66" stroke-linecap="round" stroke-linejoin="round"/>
<path d="M16.6705 17.15L6.23047 13.77" stroke="#FF6E39" stroke-width="1.66" stroke-linecap="round" stroke-linejoin="round"/>
</g>
<defs>
<clipPath id="clip0_581_5232">
<rect width="22.6" height="22.51" fill="white"/>
</clipPath>
</defs>
</svg>
