<svg width="37" height="37" viewBox="0 0 37 37" fill="none" xmlns="http://www.w3.org/2000/svg">
<path d="M18.7477 36.3C28.7716 36.3 36.8977 28.174 36.8977 18.15C36.8977 8.12603 28.7716 0 18.7477 0C8.72369 0 0.597656 8.12603 0.597656 18.15C0.597656 28.174 8.72369 36.3 18.7477 36.3Z" fill="#222222"/>
<path d="M28.7661 11.9299C28.1362 12.2099 27.4461 12.3899 26.7661 12.4999C27.0861 12.4499 27.5561 11.8599 27.7461 11.6299C28.0361 11.2699 28.2761 10.8599 28.4061 10.4199C28.4261 10.3899 28.4361 10.3399 28.4061 10.3199C28.3661 10.2999 28.3361 10.3199 28.2961 10.3199C27.5361 10.7299 26.7561 11.0199 25.9261 11.2299C25.8561 11.2499 25.8062 11.2299 25.7661 11.1899C25.6961 11.1099 25.6361 11.0399 25.5561 10.9799C25.2061 10.6799 24.8261 10.4499 24.4061 10.2799C23.8461 10.0499 23.2461 9.95992 22.6461 9.99992C22.0661 10.0399 21.4861 10.1999 20.9761 10.4699C20.4561 10.7399 19.9961 11.1199 19.6261 11.5699C19.2461 12.0399 18.9661 12.5999 18.8161 13.1799C18.6761 13.7499 18.6861 14.3099 18.7761 14.8799C18.7861 14.9799 18.7761 14.9899 18.6961 14.9799C15.4361 14.4899 12.7361 13.3299 10.5361 10.8299C10.4361 10.7199 10.3861 10.7199 10.3161 10.8299C9.35614 12.2699 9.82614 14.5799 11.0261 15.7199C11.1861 15.8699 11.3461 16.0199 11.5261 16.1599C11.4661 16.1699 10.6661 16.0899 9.95614 15.7199C9.85614 15.6599 9.81614 15.6899 9.80614 15.7999C9.80614 15.9599 9.80614 16.0999 9.83614 16.2699C10.0161 17.7299 11.0261 19.0799 12.4161 19.5999C12.5761 19.6699 12.7661 19.7299 12.9361 19.7599C12.6161 19.8299 12.2961 19.8799 11.3961 19.8099C11.2861 19.7899 11.2361 19.8399 11.2861 19.9499C11.9661 21.7999 13.4361 22.3499 14.5261 22.6699C14.6761 22.6999 14.8161 22.6999 14.9661 22.7299C14.9661 22.7399 14.9461 22.7399 14.9361 22.7599C14.5761 23.3199 13.3061 23.7299 12.7161 23.9299C11.6461 24.2999 10.4861 24.4699 9.35614 24.3599C9.17614 24.3299 9.13614 24.3399 9.08614 24.3599C9.03614 24.3899 9.08614 24.4299 9.13614 24.4799C9.36614 24.6299 9.59614 24.7699 9.83614 24.8999C10.5561 25.2799 11.3061 25.5799 12.0861 25.7999C16.1261 26.9199 20.6761 26.0999 23.7161 23.0799C26.0961 20.7099 26.9361 17.4499 26.9361 14.1799C26.9361 14.0499 27.0861 13.9799 27.1761 13.9099C27.7961 13.4399 28.2961 12.8899 28.7561 12.2599C28.8561 12.1199 28.8561 11.9999 28.8561 11.9399V11.9199C28.8561 11.8699 28.8561 11.8799 28.7761 11.9199L28.7661 11.9299Z" fill="#0FC1EA"/>
</svg>
