<svg width="37" height="37" viewBox="0 0 37 37" fill="none" xmlns="http://www.w3.org/2000/svg">
<path d="M18.3472 36.3C28.3712 36.3 36.4973 28.174 36.4973 18.15C36.4973 8.12603 28.3712 0 18.3472 0C8.32329 0 0.197266 8.12603 0.197266 18.15C0.197266 28.174 8.32329 36.3 18.3472 36.3Z" fill="#222222"/>
<path d="M28.0653 15.5099C28.0653 13.0999 26.1153 11.1499 23.7053 11.1499H12.5553C10.1453 11.1499 8.19531 13.0999 8.19531 15.5099V20.6999C8.19531 23.1099 10.1453 25.0599 12.5553 25.0599H23.7053C26.1153 25.0599 28.0653 23.1099 28.0653 20.6999V15.5099ZM21.5053 18.4899L16.5053 20.9599C16.3053 21.0699 15.6453 20.9199 15.6453 20.6999V15.6199C15.6453 15.3899 16.3153 15.2499 16.5153 15.3599L21.2953 17.9599C21.4953 18.0699 21.7053 18.3599 21.5053 18.4699V18.4899Z" fill="#0FC1EA"/>
</svg>
